<svg height="49" viewBox="0 0 72 49" width="72" xmlns="http://www.w3.org/2000/svg" xmlns:xlink="http://www.w3.org/1999/xlink"><mask id="a" fill="#fff"><path d="m.14265.4796h10.5195v10.5204h-10.5195z" fill="#fff" fill-rule="evenodd"/></mask><mask id="b" fill="#fff"><path d="m.72555.11101687h63.11895v24.68073313h-63.11895z" fill="#fff" fill-rule="evenodd"/></mask><mask id="c" fill="#fff"><path d="m.41045.4796h10.5195v10.5204h-10.5195z" fill="#fff" fill-rule="evenodd"/></mask><mask id="d" fill="#fff"><path d="m0 .2535h23.85405v19.23075h-23.85405z" fill="#fff" fill-rule="evenodd"/></mask><g fill="#4d4d4d" fill-rule="evenodd"><path d="m5.40165 8.8961c-1.74 0-3.156-1.416-3.156-3.156s1.416-3.156 3.156-3.156 3.156 1.416 3.156 3.156-1.416 3.156-3.156 3.156m0-8.4165c-2.901 0-5.259 2.3595-5.259 5.2605s2.358 5.2605 5.259 5.2605 5.2605-2.3595 5.2605-5.2605-2.3595-5.2605-5.2605-5.2605" mask="url(#a)" transform="translate(13 33.74695)"/><path d="m52.51905 9.01175h-2.8605c-.2925 0-.5295-.2385-.5265282-.531l.0270282-2.85c.0045-.435.501-.6705.8505-.414 1.137.831 2.0835 1.821 2.925 2.9445.264.351.0225.8505-.4155.8505zm-5.4915-.5205c-.003.288-.237.5205-.525.5205h-9.483c-.2895 0-.5265-.2355-.5265-.5265v-5.7435c0-.291.2325-.53101103.5235-.53101103 2.097-.00148897 4.317.15001103 6.6765.47701103 1.1235.198 2.1255.4695 3.036.8025.21.0765.3435.279.3420125.5025zm-12.6375-.006c0 .291-.2355.5265-.5265.5265h-13.719c-.486 0-.7065-.597-.348-.924 3.651-3.327 8.292-5.2305 14.013-5.736.309-.0285.5805.2205.5805.5295zm28.404 9.9945v-6.312c0-.4515-.2895-.855-.72-.999l-5.9355-1.977c-2.235-3.7875-5.3085-7.3905-12.099-8.58-.012-.0015-.0255-.0045-.0375-.006-12.5415-1.734-21.9555 1.095-28.0005 8.4105-4.5.0645-9.093 1.005-11.7945 2.736-1.3995.8955-2.229 2.4555-2.307 4.116l-.123 2.6115c-.579 0-1.0515.471-1.0515 1.053v4.2075c0 .5805.4725 1.0515 1.0515 1.0515h4.209c.5835 0 1.0515-.48 1.0515-1.0635 0-.0045.0015-.0105.0015-.0165.015-4.053 3.3045-7.335 7.362-7.335 4.068 0 7.365 3.2955 7.365 7.3635-.0765.639.4275 1.0515 1.0515 1.0515h18.936c.5835 0 1.05-.48 1.0515-1.0635 0-.0045.0015-.0105.0015-.0165.0165-4.053 3.306-7.3365 7.3635-7.3365 4.0665 0 7.3635 3.297 7.3635 7.365-.0765.6375.4275 1.0515 1.0515 1.0515h4.209c.579 0 1.0515-.471 1.0515-1.0515v-4.209c0-.5805-.471-1.0515-1.0515-1.0515z" mask="url(#b)" transform="translate(4 15.74695)"/><path d="m5.66945 8.8961c-1.74 0-3.156-1.416-3.156-3.156s1.416-3.156 3.156-3.156 3.156 1.416 3.156 3.156-1.416 3.156-3.156 3.156m0-8.4165c-2.901 0-5.259 2.3595-5.259 5.2605s2.358 5.2605 5.259 5.2605 5.2605-2.3595 5.2605-5.2605-2.3595-5.2605-5.2605-5.2605" mask="url(#c)" transform="translate(48.5 33.74695)"/><path d="m1.83405 19.48425-1.8345-19.2315 8.2155 7.3695 7.767-6.06.2025 6.426 7.6695.606-6.441 6.5955-1.074-1.0485 4.2045-4.3035-5.8155-.459-.1515-4.8165-6.429 5.016-6.2895-5.6445 1.4685 15.408z" mask="url(#d)" transform="translate(4 4.24695)"/></g></svg>