<svg height="49" viewBox="0 0 72 49" width="72" xmlns="http://www.w3.org/2000/svg"><g fill="#4d4d4d" fill-rule="evenodd" transform="translate(2 4)"><path d="m6.17565 8.8961c-1.7385 0-3.156-1.416-3.156-3.156s1.4175-3.156 3.156-3.156c1.74 0 3.156 1.416 3.156 3.156s-1.416 3.156-3.156 3.156m0-8.4165c-2.8995 0-5.259 2.3595-5.259 5.2605s2.358 5.2605 5.259 5.2605 5.2605-2.3595 5.2605-5.2605-2.358-5.2605-5.2605-5.2605" transform="translate(12 29.75595)"/><path d="m56.3055 20.80295h-2.8605c-.294 0-.5295-.2385-.5265283-.531l.0285283-2.8515c.003-.4335.4995-.6705.849-.4125 1.137.831 2.0835 1.821 2.925 2.9445.264.3495.021.8505-.4155.8505zm-5.49-.5205c-.0045.288-.2385.5205-.528.5205h-9.4815c-.2895 0-.5265-.2355-.5265-.5265v-5.7435c0-.291.234-.5310433.5235-.5310433 2.097-.0029567 4.317.1500433 6.6765.4770433 1.1235.198 2.1255.4695 3.0375.8025.207.0765.342.279.339049.5025zm-12.639-.006c0 .291-.2355.5265-.528.5265h-13.7175c-.486 0-.708-.597-.348-.924 3.6495-3.327 8.292-5.232 14.013-5.7375.3075-.027.5805.222.5805.531zm28.404 9.9945v-6.312c0-.4515-.291-.855-.72-.999l-5.9355-1.9785c-2.235-3.786-5.3085-7.389-12.099-8.5785-.012-.003-.0255-.0045-.039-.006-12.7005-1.6425-22.308 1.296-28.0005 8.4105-4.4985.0645-9.0915 1.005-11.793 2.7345-1.3995.897-2.229 2.457-2.307 4.1175l-.1215 2.6115c-.582 0-1.053.471-1.053 1.0515v4.209c0 .5805.471 1.0515 1.053 1.0515h4.2075c.5835 0 1.0515-.48 1.0515-1.0635 0-.0045.0015-.0105.0015-.0165.015-4.053 3.306-7.3365 7.362-7.3365 4.068 0 7.365 3.297 7.365 7.3635-.0765.639.4275 1.053 1.0515 1.053h18.936c.5835 0 1.05-.48 1.0515-1.0635v-.0165c.0165-4.0545 3.3075-7.3365 7.365-7.3365 4.0665 0 7.3635 3.297 7.3635 7.3635-.0765.639.4275 1.053 1.0515 1.053h4.209c.579 0 1.0515-.471 1.0515-1.053v-4.2075c0-.5805-.4725-1.0515-1.0515-1.0515z"/><path d="m5.9442 8.8961c-1.74 0-3.156-1.416-3.156-3.156s1.416-3.156 3.156-3.156 3.156 1.416 3.156 3.156-1.416 3.156-3.156 3.156m0-8.4165c-2.901 0-5.2605 2.3595-5.2605 5.2605s2.3595 5.2605 5.2605 5.2605 5.2605-2.3595 5.2605-5.2605-2.3595-5.2605-5.2605-5.2605" transform="translate(48 29.75595)"/><path d="m5.46225 22.51575s-.7635-3.621-.222-6.4575c.7005-3.6795 2.6295-6.189 2.6295-6.189s.567 3.243 3.858 4.695c3.2895 1.452 1.8165 4.5075 1.8165 4.5075s3.582-1.416 3.519-4.599c-.003-.975-.2775-2.3115-1.143-3.9465-1.1115-2.0715-2.313-2.97-2.9925-3.339.2895.5115.2235 3.6375-1.0875 2.4015-1.311-1.2345-1.347-1.8375-1.455-2.9595-.432-4.4655-4.56-6.3855-4.56-6.3855.693 3.6015.3375 5.4165-3.3255 10.1595-7.0155 8.523 2.9625 12.1125 2.9625 12.1125" transform="translate(0 .25595)"/></g></svg>