<svg height="49" viewBox="0 0 72 49" width="72" xmlns="http://www.w3.org/2000/svg" xmlns:xlink="http://www.w3.org/1999/xlink"><mask id="a" fill="#fff"><path d="m.91935.38865h10.1115v10.11135h-10.1115z" fill="#fff" fill-rule="evenodd"/></mask><mask id="b" fill="#fff"><path d="m.79635.38865h10.113v10.11135h-10.113z" fill="#fff" fill-rule="evenodd"/></mask><g fill="#4d4d4d" fill-rule="evenodd" transform="translate(4 3)"><path d="m5.97435 8.47815c-1.6725 0-3.033-1.362-3.033-3.033 0-1.6725 1.3605-3.0345 3.033-3.0345s3.033 1.362 3.033 3.0345c0 1.671-1.3605 3.033-3.033 3.033m0-8.0895c-2.787 0-5.055 2.268-5.055 5.0565 0 2.787 2.268 5.055 5.055 5.055s5.0565-2.268 5.0565-5.055c0-2.7885-2.268-5.0565-5.0565-5.0565" mask="url(#a)" transform="translate(10.5 31.76475)"/><path d="m53.1108 23.05365h-2.7495c-.282 0-.5085-.2295-.5055295-.5115l.0270295-2.739c.003-.4185.48-.645.816-.3975 1.0935.798 2.0025 1.749 2.8125 2.8305.2535.336.0195.8175-.4005.8175zm-5.277-.501c-.003.2775-.228.501-.5055.501h-9.114c-.279 0-.507-.2265-.507-.5055v-5.5215c0-.2805.2235-.5100115.5025-.5100115 2.0175-.0014885 4.1505.1440115 6.4185.4575115 1.08.1905 2.043.4515 2.919.771.1995.075.3285.27.3270129.4845zm-12.1485-.0045c0 .279-.2265.5055-.5055.5055h-13.185c-.468 0-.6795-.5745-.3345-.8895 3.5085-3.198 7.9695-5.0265 13.4685-5.514.2955-.0255.5565.213.5565.51zm27.3 9.6045v-6.066c0-.435-.2775-.822-.69-.96l-5.706-1.902c-2.148-3.639-5.1015-7.101-11.628-8.2455-.012-.0015-.024-.003-.0375-.006-12.0525-1.6665-21.102 1.053-26.9115 8.0835-.123.003-.2325.0075-.3495.0105v-.0135l-6.243-1.7775c-1.35 0-2.4435 1.0935-2.4435 2.4435 0 .5865.72 1.356 1.065 1.776.081.1005.4305 1.284-.789 1.341-.3165-.105-.648-.1755-.999-.1755-.873 0-.099 1.482-.672 2.055s-2.493.237-2.493 1.11c0 1.113.5775 2.088 1.446 2.652-.267.4815-.135 1.392-.522 1.9665-.3285.4845-1.9365.114-1.9365.7425 0 1.6755 1.3575 3.033 3.033 3.033h.996.2805c.561 0 1.0095-.4605 1.011-1.0215 0-.006.0015-.0105.0015-.0165.015-3.897 3.177-7.0515 7.077-7.0515 3.909 0 7.077 3.1695 7.077 7.0785-.072.6135.4125 1.011 1.011 1.011h18.201c.561 0 1.0095-.4605 1.011-1.0215 0-.006 0-.0105 0-.018.0165-3.8955 3.1785-7.05 7.0785-7.05 3.909 0 7.077 3.1695 7.077 7.0785-.072.6135.411 1.011 1.011 1.011h4.044c.5595 0 1.0110037-.453 1.0110037-1.011v-4.044c.0014963-.558-.4515037-1.0125-1.0110037-1.0125z"/><path d="m5.85285 8.47815c-1.6725 0-3.033-1.362-3.033-3.033 0-1.6725 1.3605-3.0345 3.033-3.0345s3.033 1.362 3.033 3.0345c0 1.671-1.3605 3.033-3.033 3.033m0-8.0895c-2.787 0-5.0565 2.268-5.0565 5.0565 0 2.787 2.2695 5.055 5.0565 5.055s5.0565-2.268 5.0565-5.055c0-2.7885-2.2695-5.0565-5.0565-5.0565" mask="url(#b)" transform="translate(45 31.76475)"/><path d="m11.0025 18.6936-1.455-.363c.8775-3.507.0165-5.1975-.8175-6.831-1.146-2.25-2.2275-4.374 1.3155-9.7515l1.2525.825c-3.063 4.6485-2.2545 6.2355-1.2315 8.2455.8685 1.704 1.95 3.8235.936 7.875"/><path d="m2.469 27.62475c-1.5015-4.8975-.3945-7.185.582-9.204.3495-.7215.6795-1.404.8865-2.184.3675-1.3875-.4545-2.544-1.4955-4.008-1.8885-2.661-4.239-5.9715-.309-12.2295l1.2705.7995c-3.3975 5.4075-1.5375 8.028.2625 10.5615 1.1145 1.5705 2.268 3.1935 1.7205 5.2605-.243.9195-.621 1.6995-.9855 2.454-.939 1.941-1.827 3.7755-.498 8.1105z"/></g></svg>