<svg height="49" viewBox="0 0 72 49" width="72" xmlns="http://www.w3.org/2000/svg" xmlns:xlink="http://www.w3.org/1999/xlink"><mask id="a" fill="#fff"><path d="m.00075.948h63.11775v24.68055h-63.11775z" fill="#fff" fill-rule="evenodd"/></mask><mask id="b" fill="#fff"><path d="m0 33.55215h63.1185v-32.052h-63.1185z" fill="#fff" fill-rule="evenodd"/></mask><g fill="#4d4d4d" fill-rule="evenodd" transform="translate(4 7)"><path d="m51.79275 9.84855h-2.8605c-.2925 0-.5295-.2385-.525-.531l.027-2.85c.0045-.435.4995-.6705.849-.414 1.137.831 2.0835 1.821 2.9265 2.9445.2625.351.021.8505-.417.8505zm-5.49-.5205c-.0045.288-.2385.5205-.5265.5205h-9.483c-.2895 0-.5265-.2355-.5265-.5265v-5.7435c0-.291.234-.53101103.5235-.53101103 2.097-.00148897 4.317.15001103 6.678.47701103 1.1235.198 2.124.4695 3.036.8025.2085.0765.342.279.3405125.5025zm-12.639-.006c0 .291-.2355.5265-.5265.5265h-13.719c-.486 0-.7065-.597-.348-.924 3.651-3.327 8.2935-5.2305 14.0145-5.736.3075-.0285.579.2205.579.5295zm28.404 9.9945v-6.312c0-.4515-.2895-.855-.72-.999l-5.9355-1.977c-2.235-3.7875-5.307-7.3905-12.099-8.58-.012-.0015-.024-.0045-.0375-.006-12.5415-1.734-21.9555 1.095-28.0005 8.4105-4.5.0645-9.093 1.005-11.7945 2.736-1.3995.8955-2.229 2.4555-2.307 4.116l-.1215 2.6115c-.5805 0-1.0515.471-1.0515 1.053v4.2075c0 .5805.471 1.0515 1.0515 1.0515h4.2075c.5835 0 1.0515-.48 1.0515-1.0635 0-.0045.0015-.0105.0015-.0165.015-4.053 3.306-7.335 7.3635-7.335 4.0665 0 7.3635 3.2955 7.3635 7.3635-.075.639.4275 1.0515 1.0515 1.0515h18.936c.5835 0 1.0515-.48 1.0515-1.0635 0-.0045.0015-.0105.0015-.0165.0165-4.053 3.306-7.3365 7.3635-7.3365 4.0665 0 7.3635 3.297 7.3635 7.365-.0765.6375.4275 1.0515 1.0515 1.0515h4.209c.5805 0 1.0515-.471 1.0515-1.0515v-4.209c0-.5805-.471-1.0515-1.0515-1.0515z" mask="url(#a)" transform="translate(0 .55215)"/><path d="m15.89025 25.1289c0-1.2225-.9915-2.214-2.214-2.214-1.224 0-2.214.9915-2.214 2.214s.99 2.214 2.214 2.214c1.2225 0 2.214-.9915 2.214-2.214"/><path d="m51.65805 25.1289c0-1.2225-.9915-2.214-2.214-2.214-1.224 0-2.214.9915-2.214 2.214s.99 2.214 2.214 2.214c1.2225 0 2.214-.9915 2.214-2.214"/><path d="m7.8495 30.34365h11.652v-2.5815h-11.652z" mask="url(#b)"/><path d="m43.617 30.34365h11.652v-2.5815h-11.652z" mask="url(#b)"/><path d="m8.547 33.55215h11.652v-2.5815h-11.652z" mask="url(#b)"/><path d="m44.3145 33.55215h11.652v-2.5815h-11.652z" mask="url(#b)"/></g></svg>