<svg height="49" viewBox="0 0 72 49" width="72" xmlns="http://www.w3.org/2000/svg" xmlns:xlink="http://www.w3.org/1999/xlink"><mask id="a" fill="#fff"><path d="m.8127.4808h10.521v10.5192h-10.521z" fill="#fff" fill-rule="evenodd"/></mask><mask id="b" fill="#fff"><path d="m.78495.4808h10.521v10.5192h-10.521z" fill="#fff" fill-rule="evenodd"/></mask><mask id="c" fill="#fff"><path d="m0 .582h53.256v28.59585h-53.256z" fill="#fff" fill-rule="evenodd"/></mask><g fill="#4d4d4d" fill-rule="evenodd"><path d="m6.0732 8.8958c-1.74 0-3.156-1.416-3.156-3.156s1.416-3.156 3.156-3.156 3.156 1.416 3.156 3.156-1.416 3.156-3.156 3.156m0-8.415c-2.901 0-5.2605 2.358-5.2605 5.259s2.3595 5.2605 5.2605 5.2605 5.2605-2.3595 5.2605-5.2605c0-2.8995-2.3595-5.259-5.2605-5.259" mask="url(#a)" transform="translate(9 30.41845)"/><path d="m6.04545 8.8958c-1.74 0-3.156-1.416-3.156-3.156s1.416-3.156 3.156-3.156 3.156 1.416 3.156 3.156-1.416 3.156-3.156 3.156m0-8.415c-2.901 0-5.2605 2.358-5.2605 5.259s2.3595 5.2605 5.2605 5.2605 5.2605-2.3595 5.2605-5.2605c0-2.8995-2.3595-5.259-5.2605-5.259" mask="url(#b)" transform="translate(48 30.41845)"/><path d="m17.7729 3.00585c6.3135-.582 12.8805-.4365 12.8805-.4365v8.799c0 1.6905-1.371 3.0615-3.0615 3.0615h-9.819zm14.1405-.444s4.539-.027 9.4125.1785v6.762c0 1.365-1.107 2.472-2.4735 2.472h-6.939zm17.4045 18.0225c3.0885-4.719 3.1005-12.5385 3.1005-15.258v-3.984l-.828-.0765c-11.3685-1.047-25.149-.8385-36.5115.2595l.0105 1.7775c.498-.066 1.0065-.1245 1.518-.18v11.307c-.7275.894-1.809 1.431-2.9685 1.431h-10.1025v5.187h-3.537v1.5h8.6895c2.6235 1.062 4.4805 3.6255 4.4805 6.63h24.7245c.0135-1.581.5565-3.0255 1.4355-4.2045 1.1295-1.545 2.85-2.628 4.8375-2.889h9.09v-1.5z" mask="url(#c)" transform="translate(9 6.91845)"/></g></svg>