<svg height="49" viewBox="0 0 72 49" width="72" xmlns="http://www.w3.org/2000/svg"><g fill="#4d4d4d" fill-rule="evenodd" transform="translate(3 9)"><path d="m13.5393 28.61045c-1.827 0-3.3135-1.4865-3.3135-3.312s1.4865-3.312 3.3135-3.312c1.8255 0 3.312 1.4865 3.312 3.312s-1.4865 3.312-3.312 3.312m0-8.832c-3.0435 0-5.5215 2.4765-5.5215 5.52s2.478 5.52 5.5215 5.52c3.042 0 5.52-2.4765 5.52-5.52s-2.4765-5.52-5.52-5.52"/><path d="m53.54265 9.52265h-3.003c-.306 0-.555-.2505-.5520268-.558l.0285268-2.991c.0045-.456.525-.7035.8925-.4335 1.194.8715 2.1855 1.911 3.0705 3.09.276.3675.0225.8925-.4365.8925zm-5.763-.546c-.003.3015-.249.546-.552.546h-9.9525c-.3045 0-.552-.2475-.552-.552v-6.0285c0-.306.2445-.55654127.549-.55654127 2.202-.00295873 4.5315.15754127 7.008.49954127 1.179.207 2.2305.492 3.186.843.2205.0795.36.294.3570474.5265zm-13.2645-.006c0 .3045-.2475.552-.552.552h-14.397c-.51 0-.7425-.627-.366-.9705 3.831-3.492 8.703-5.4885 14.7075-6.021.324-.0285.6075.2325.6075.5565zm29.8095 10.4895v-6.6255c0-.474-.303-.897-.753-1.047l-6.231-2.0775c-2.346-3.9735-5.571-7.755-12.6975-9.003l-.039-.006c-13.161-1.821-23.043 1.149-29.388 8.826-.1335.0015-.2535.0075-.381.0105v-.015l-6.8175-1.9395c-1.473 0-2.667 1.194-2.667 2.667 0 .642.786 1.4805 1.1625 1.941.09.108.471 1.3995-.861 1.464-.3435-.1155-.7065-.1935-1.0905-.1935-.954 0-.1095 1.6185-.735 2.244s-2.721.258-2.721 1.2135c0 1.215.63 2.28 1.5795 2.895-.291.525-.147 1.521-.5715 2.148-.3555.528-2.1135.123-2.1135.81 0 1.8285 1.4835 3.312 3.312 3.312h1.0875.306c.6135 0 1.104-.504 1.1055-1.1175v-.0165c.0165-4.254 3.468-7.6995 7.728-7.6995 4.2675 0 7.7265 3.4605 7.7265 7.7295-.078.669.45 1.104 1.1055 1.104h19.8735c.612 0 1.1025-.504 1.104-1.1175v-.0165c.018-4.254 3.4695-7.6995 7.7265-7.6995 4.269 0 7.7295 3.4605 7.7295 7.7295-.0795.669.45 1.104 1.104 1.104h4.416c.6105 0 1.1040034-.495 1.1040034-1.104v-4.4175c.0014966-.609-.4935034-1.1025-1.1040034-1.1025z" transform="translate(0 .31875)"/><path d="m51.0774 28.61045c-1.827 0-3.3135-1.4865-3.3135-3.312s1.4865-3.312 3.3135-3.312c1.8255 0 3.312 1.4865 3.312 3.312s-1.4865 3.312-3.312 3.312m0-8.832c-3.0435 0-5.5215 2.4765-5.5215 5.52s2.478 5.52 5.5215 5.52 5.52-2.4765 5.52-5.52-2.4765-5.52-5.52-5.52"/></g></svg>