<svg height="49" viewBox="0 0 72 49" width="72" xmlns="http://www.w3.org/2000/svg"><path d="m51.6947646 9.0158719h-2.8551296c-.2919509 0-.5270087-.24158521-.5240427-.53786895l.0269776-2.88686725c.0044916-.4406271.4985623-.6791735.8489033-.41935545 1.1333682.84174971 2.0780912 1.84455623 2.9195085 2.98258968.2620072.3555405.0209606.86150197-.4162171.86150197zm-5.4796929-.52723313c-.0029944.29172553-.2380523.52723313-.5255116.52723313h-9.4651964c-.2889565 0-.5240144-.2385464-.5240144-.53331074v-5.8177972c0-.29476434.2320635-.53788012.5225172-.53788012 2.0930631-.00150823 4.307398.15195155 6.6639654.48318158 1.1213907.20056131 2.1200124.4755734 3.0303002.81288104.2081085.0774896.3413579.28260911.3398732.50900028zm-12.6152713-2.91725532v2.91117771 13.35404014c0 .647266-.5180256 1.1729797-1.1573232 1.1729797h-7.7494237c-.5629411 0-1.0435371-.410239-1.1408541-.9724184l-.1362437-.797687c-.447658-2.6088164-2.1559448-4.8149907-4.5469474-5.8709764v-6.99685452c.0209606-.10635827.0748592-.20815832.1646902-.29172553 3.6441456-3.37003766 8.2779296-5.2996805 13.9881889-5.81020018.3069227-.02886867.577913.22335236.577913.53634955zm28.3506737 13.03496535v-6.3936513c0-.4573405-.2889565-.8660602-.7186482-1.0119229l-5.9228594-2.00409365c-2.2323012-3.83497522-5.2985337-7.48458318-12.0777823-8.6894704-.0119775-.00303881-.0239549-.00455821-.0374296-.00607762-12.5179543-1.7564308-21.9142803 1.10916479-27.9479313 8.51929718-4.4915516.06533436-9.07592858 1.01800059-11.77235673 2.77139259-1.39687254.907084-2.22481522 2.487264-2.30266878 4.169244l-.1212719 2.6452821c-.57941015 0-1.04952589.4770928-1.04952589 1.0666214v4.2619277c0 .5880093.47011574 1.0651021 1.04952589 1.0651021h4.19960075c.58390171 0 1.04952589-.4862092 1.05102308-1.0772573 0-.0045582 0-.0106358 0-.0167134.01646902-4.1054291 3.29979324-7.4314041 7.34967558-7.4314041 4.0588655 0 7.3496756 3.3396496 7.3496756 7.4602727-.0748592.6472661.4281946 1.0651021 1.0495259 1.0651021h18.9004492c.5824045 0 1.0495259-.4862092 1.0510231-1.0772573 0-.0045582 0-.0106358 0-.0167134.016469-4.1054291 3.2997932-7.4314041 7.3496756-7.4314041 4.0588654 0 7.3496756 3.3396496 7.3496756 7.4587533-.0763564.647266.4266974 1.0666215 1.0495259 1.0666215h4.2010979c.5794102 0 1.0495259-.4770928 1.0495259-1.0666215v-4.2619277c0-.5880092-.4701157-1.065102-1.0495259-1.065102z" fill="#4d4d4d" fill-rule="evenodd" transform="translate(4 12)"/></svg>