<svg height="49" viewBox="0 0 72 49" width="72" xmlns="http://www.w3.org/2000/svg" xmlns:xlink="http://www.w3.org/1999/xlink"><mask id="a" fill="#fff"><path d="m0 .0078h56.88375v4.1685h-56.88375z" fill="#fff" fill-rule="evenodd"/></mask><mask id="b" fill="#fff"><path d="m0 .3315h56.88375v4.1685h-56.88375z" fill="#fff" fill-rule="evenodd"/></mask><g fill="#4d4d4d" fill-rule="evenodd" transform="translate(6)"><path d="m49.8216 22.41405c-1.404 1.404-3.687 1.404-5.0925 0-1.4025-1.404-1.4025-3.687 0-5.0925 1.4055-1.4025 3.6885-1.4025 5.0925 0 1.404 1.4055 1.404 3.6885 0 5.0925m-6.789-6.789c-2.3385 2.34-2.3385 6.147 0 8.4855 2.34 2.34 6.147 2.34 8.4855 0 2.34-2.3385 2.34-6.1455 0-8.4855-2.3385-2.3385-6.1455-2.3385-8.4855 0"/><path d="m37.2912 6.0936-2.3085 2.307c-.2355.2355-.618.234-.852-.003l-2.277-2.322c-.3465-.354-.138-.9435.351-1.0185 1.5885-.2475 3.15-.213 4.7355.0135.495.072.7035.6705.351 1.023m-4.8525 4.8525-7.6485 7.6485c-.2355.2355-.615.2355-.849 0l-4.6335-4.632c-.2355-.2355-.24-.6165-.0075-.8505 1.6905-1.6935 3.6045-3.3615 5.7705-5.001 1.065-.747 2.0925-1.335 3.096-1.8015.231-.1065.5025-.051.681.1305l3.5955 3.6615c.228.2355.2265.6135-.0045.8445m25.8675-2.109-3.3945-3.3945c-.468-.468-1.2285-.468-1.6965 0l-5.091-5.091c-.3645-.3645-.924-.456-1.386-.225l-6.384 3.192c-4.8555-1.251-10.2405-1.6785-16.6785 2.838-.0105.009-.024.018-.036.027-10.2525 7.7625-15.5745 16.446-15.8955 25.866.8865-.141 1.689-.534 2.469-.9915.402-5.3715 2.58-10.4295 6.6135-15.246.228-.2715.6465-.2895.897-.0405l4.5195 4.521c.2355.234.2355.6135 0 .849l-8.3535 8.3535c.1125-.009.216-.039.3315-.039 2.667 0 4.446 2.6685 7.1145 2.6685s4.4475-2.6685 7.107-2.6685c2.667 0 4.446 2.6685 7.1145 2.6685.5085 0 .9765-.117 1.4325-.273l4.3455-4.347c.471-.471.4605-1.2345-.009-1.7055-.0045-.0045-.0075-.0105-.012-.015-3.258-3.282-3.252-8.583.021-11.856 3.2805-3.2805 8.5995-3.2805 11.88 0 .453.576 1.194.504 1.6965 0l3.3945-3.3945c.468-.468.468-1.227 0-1.6965"/><path d="m49.77825 4.1763c-1.542 0-2.763-.732-3.9435-1.44-1.0515-.6315-2.0445-1.2285-3.171-1.2285-1.1205 0-2.112.5955-3.162 1.2255-1.1805.7095-2.4015 1.443-3.9435 1.443s-2.763-.732-3.9435-1.44c-1.053-.6315-2.046-1.2285-3.1725-1.2285-1.1205 0-2.1105.5955-3.1605 1.2255-1.1805.7095-2.403 1.443-3.945 1.443s-2.763-.732-3.9435-1.44c-1.053-.6315-2.046-1.2285-3.1725-1.2285-1.1205 0-2.1105.5955-3.1605 1.2255-1.1805.7095-2.403 1.443-3.945 1.443s-2.763-.732-3.9435-1.44c-1.0515-.6315-2.046-1.2285-3.1725-1.2285v-1.5c1.542 0 2.763.732 3.9435 1.4415 1.053.6315 2.046 1.227 3.1725 1.227s2.121-.597 3.1725-1.2285c1.1775-.708 2.397-1.44 3.933-1.44 1.542 0 2.763.732 3.9435 1.4415 1.0515.6315 2.046 1.227 3.1725 1.227s2.121-.597 3.1725-1.2285c1.1775-.708 2.397-1.44 3.933-1.44 1.542 0 2.763.732 3.9435 1.4415 1.0515.6315 2.046 1.227 3.1725 1.227s2.1195-.597 3.171-1.2285c1.179-.708 2.397-1.44 3.9345-1.44 1.542 0 2.763.732 3.9435 1.4415 1.0515.6315 2.0445 1.227 3.171 1.227s2.121-.597 3.174-1.2285c1.1775-.708 2.3955-1.44 3.9315-1.44v1.5c-1.119 0-2.1105.5955-3.1605 1.2255-1.1805.7095-2.4015 1.443-3.945 1.443" mask="url(#a)" transform="translate(0 34.69755)"/><path d="m49.77825 4.5c-1.542 0-2.763-.732-3.9435-1.44-1.0515-.6315-2.0445-1.2285-3.171-1.2285-1.1205 0-2.112.5955-3.162 1.2255-1.1805.7095-2.4015 1.443-3.9435 1.443s-2.763-.732-3.9435-1.44c-1.053-.6315-2.046-1.2285-3.1725-1.2285-1.1205 0-2.1105.5955-3.1605 1.2255-1.1805.7095-2.403 1.443-3.945 1.443s-2.763-.732-3.9435-1.44c-1.053-.6315-2.046-1.2285-3.1725-1.2285-1.1205 0-2.1105.5955-3.1605 1.2255-1.1805.7095-2.403 1.443-3.945 1.443s-2.763-.732-3.9435-1.44c-1.0515-.6315-2.046-1.2285-3.1725-1.2285v-1.5c1.542 0 2.763.732 3.9435 1.4415 1.053.6315 2.046 1.227 3.1725 1.227s2.121-.597 3.1725-1.2285c1.1775-.708 2.397-1.44 3.933-1.44 1.542 0 2.763.732 3.9435 1.4415 1.0515.6315 2.046 1.227 3.1725 1.227s2.121-.597 3.1725-1.2285c1.1775-.708 2.397-1.44 3.933-1.44 1.542 0 2.763.732 3.9435 1.4415 1.0515.6315 2.046 1.227 3.1725 1.227s2.1195-.597 3.171-1.2285c1.179-.708 2.397-1.44 3.9345-1.44 1.542 0 2.763.732 3.9435 1.4415 1.0515.6315 2.0445 1.227 3.171 1.227s2.121-.597 3.174-1.2285c1.1775-.708 2.3955-1.44 3.9315-1.44v1.5c-1.119 0-2.1105.5955-3.1605 1.2255-1.1805.7095-2.4015 1.443-3.945 1.443" mask="url(#b)" transform="translate(0 42.19755)"/></g></svg>