<svg height="49" viewBox="0 0 72 49" width="72" xmlns="http://www.w3.org/2000/svg" xmlns:xlink="http://www.w3.org/1999/xlink"><mask id="a" fill="#fff"><path d="m0 .09695h65.42925v25.90305h-65.42925z" fill="#fff" fill-rule="evenodd"/></mask><mask id="b" fill="#fff"><path d="m.78975.0953h23.85225v21.0735h-23.85225z" fill="#fff" fill-rule="evenodd"/></mask><g fill="#4d4d4d" fill-rule="evenodd" transform="translate(1)"><path d="m51.8901 19.29455c1.827 0 3.312 1.4865 3.312 3.312s-1.485 3.312-3.312 3.312c-1.8255 0-3.312-1.4865-3.312-3.312s1.4865-3.312 3.312-3.312m0 8.832c3.0435 0 5.5215-2.4765 5.5215-5.52s-2.478-5.52-5.5215-5.52-5.52 2.4765-5.52 5.52 2.4765 5.52 5.52 5.52"/><path d="m11.88675 16.65845h3.0015c.3075 0 .5565.2505.552.558l-.027 2.991c-.0045.456-.525.7035-.8925.435-1.194-.873-2.187-1.9125-3.0705-3.0915-.2775-.366-.0225-.8925.4365-.8925zm5.763.546c.003-.3015.249-.546.552-.546h9.9525c.3045 0 .5505.2475.5505.552v6.0285c0 .306-.243.5565413-.5475.5565413-2.202.0029587-4.5315-.1575413-7.008-.4995413-1.179-.207-2.2305-.492-3.186-.843-.2205-.0795-.36-.294-.3570474-.5265zm13.2645.006c0-.3045.2475-.552.552-.552h14.397c.51 0 .7425.627.366.9705-3.831 3.492-8.703 5.49-14.7075 6.021-.324.0285-.6075-.2325-.6075-.5565zm-29.8095-10.4895v6.6255c0 .474.303.897.753 1.047l6.231 2.0775c2.3445 3.9735 5.571 7.755 12.6975 9.003l.039.0075c13.161 1.8195 23.043-1.1505 29.388-8.8275.1335-.0015.2535-.0075.381-.0105v.015l6.8175 1.9395c1.473 0 2.667-1.194 2.667-2.667 0-.642-.786-1.4805-1.1625-1.9395-.09-.1095-.4725-1.401.861-1.4655.3435.1155.7065.1935 1.089.1935.9555 0 .1095-1.6185.735-2.244s2.7225-.258 2.7225-1.2135c0-1.215-.6315-2.2785-1.5795-2.895.291-.525.147-1.5195.5715-2.1465.3555-.5295 2.1135-.1245 2.1135-.8115 0-1.8285-1.4835-3.312-3.312-3.312h-1.0875-.306c-.6135 0-1.104.504-1.1055 1.1175 0 .0045-.0015.0105-.0015.0165-.015 4.254-3.468 7.6995-7.7265 7.6995-4.269 0-7.728-3.4605-7.728-7.7295.0795-.669-.4485-1.104-1.104-1.104h-19.8735c-.612 0-1.1025.504-1.104 1.1175v.0165c-.018 4.254-3.471 7.6995-7.728 7.6995-4.2675 0-7.7295-3.4605-7.7295-7.7295.081-.669-.4485-1.104-1.1025-1.104h-4.416c-.6105 0-1.1055.4965-1.1055 1.104v4.4175c0 .609.495 1.1025 1.1055 1.1025z" mask="url(#a)" transform="translate(0 21.40515)"/><path d="m14.352 19.29455c1.827 0 3.312 1.4865 3.312 3.312s-1.485 3.312-3.312 3.312c-1.8255 0-3.312-1.4865-3.312-3.312s1.4865-3.312 3.312-3.312m0 8.832c3.0435 0 5.5215-2.4765 5.5215-5.52s-2.478-5.52-5.5215-5.52-5.52 2.4765-5.52 5.52 2.4765 5.52 5.52 5.52"/><path d="m22.63425 21.1688-1.494-.1425 1.6455-17.25-6.291 5.643-6.4275-5.016-.1515 4.818-5.8155.4575 4.203 4.3035-1.0725 1.05-6.441-6.597 7.6695-.6045.2025-6.4275 7.7655 6.06 8.2155-7.368z" mask="url(#b)" transform="translate(45 .40515)"/></g></svg>