<svg height="49" viewBox="0 0 72 49" width="72" xmlns="http://www.w3.org/2000/svg" xmlns:xlink="http://www.w3.org/1999/xlink"><mask id="a" fill="#fff"><path d="m.91515.4796h10.521v10.5204h-10.521z" fill="#fff" fill-rule="evenodd"/></mask><mask id="b" fill="#fff"><path d="m.00045.1115h63.11805v24.68025h-63.11805z" fill="#fff" fill-rule="evenodd"/></mask><mask id="c" fill="#fff"><path d="m.68385.4796h10.5195v10.5204h-10.5195z" fill="#fff" fill-rule="evenodd"/></mask><g fill="#4d4d4d" fill-rule="evenodd"><path d="m6.17565 8.8961c-1.74 0-3.156-1.416-3.156-3.156s1.416-3.156 3.156-3.156 3.156 1.416 3.156 3.156-1.416 3.156-3.156 3.156m0-8.4165c-2.901 0-5.2605 2.3595-5.2605 5.2605s2.3595 5.2605 5.2605 5.2605 5.2605-2.3595 5.2605-5.2605-2.3595-5.2605-5.2605-5.2605" mask="url(#a)" transform="translate(11.5 27.38895)"/><path d="m51.79245 9.01175h-2.859c-.294 0-.531-.2385-.5265-.531l.027-2.85c.0045-.435.4995-.6705.849-.414 1.1385.831 2.0835 1.821 2.9265 2.9445.2625.351.021.8505-.417.8505zm-5.49-.5205c-.003.288-.237.5205-.5265.5205h-9.4815c-.291 0-.528-.2355-.528-.5265v-5.7435c0-.291.234-.53101103.5235-.53101103 2.097-.00148897 4.3185.15001103 6.678.47701103 1.1235.198 2.124.4695 3.036.8025.2085.0765.342.279.3405125.5025zm-12.639-.006c0 .291-.2355.5265-.5265.5265h-13.7175c-.486 0-.708-.597-.348-.924 3.6495-3.327 8.292-5.2305 14.013-5.736.3075-.0285.579.2205.579.5295zm28.4055 9.9945v-6.312c0-.4515-.291-.855-.7215-.999l-5.9355-1.977c-2.235-3.7875-5.307-7.3905-12.0975-8.58-.0135-.0015-.0255-.0045-.039-.006-12.54-1.734-21.9555 1.095-28.0005 8.4105-4.5.0645-9.0915 1.005-11.7945 2.736-1.3995.8955-2.2275 2.4555-2.307 4.116l-.1215 2.6115c-.5805 0-1.0515.471-1.0515 1.053v4.2075c0 .5805.471 1.0515 1.0515 1.0515h4.209c.582 0 1.05-.48 1.0515-1.0635 0-.0045.0015-.0105.0015-.0165.0135-4.053 3.3045-7.335 7.362-7.335 4.068 0 7.3635 3.2955 7.3635 7.3635-.075.639.4275 1.0515 1.0515 1.0515h18.936c.585 0 1.0515-.48 1.0515-1.0635 0-.0045.0015-.0105.0015-.0165.0165-4.053 3.306-7.3365 7.3635-7.3365 4.068 0 7.365 3.297 7.365 7.365-.0765.6375.4275 1.0515 1.0515 1.0515h4.2075c.5805 0 1.0515036-.471 1.0515036-1.0515v-4.209c.0014964-.5805-.4710036-1.0515-1.0500036-1.0515z" mask="url(#b)" transform="translate(4 9.38895)"/><path d="m5.94435 8.8961c-1.74 0-3.156-1.416-3.156-3.156s1.416-3.156 3.156-3.156c1.7385 0 3.156 1.416 3.156 3.156s-1.4175 3.156-3.156 3.156m0-8.4165c-2.901 0-5.2605 2.3595-5.2605 5.2605s2.3595 5.2605 5.2605 5.2605 5.259-2.3595 5.259-5.2605-2.358-5.2605-5.259-5.2605" mask="url(#c)" transform="translate(47.5 27.38895)"/></g></svg>