<svg height="49" viewBox="0 0 72 49" width="72" xmlns="http://www.w3.org/2000/svg"><g fill="#4d4d4d" fill-rule="evenodd" transform="translate(0 8)"><path d="m6.9957 9.51135c-1.9365.4365-3.867-.783-4.3035-2.7195s.783-3.8685 2.718-4.305c1.9365-.4365 3.867.7845 4.305 2.7195.4365 1.9365-.783 3.867-2.7195 4.305m-2.112-9.3645c-3.228.7275-5.2605 3.945-4.533 7.173.729 3.2265 3.945 5.2605 7.1745 4.533 3.2265-.729 5.259-3.9465 4.5315-7.1745-.7275-3.2265-3.9465-5.2605-7.173-4.5315" transform="translate(49.5 18.728)"/><path d="m15.0465 28.32575c-1.983.0675-3.654-1.4925-3.7185-3.4755-.0675-1.9845 1.491-3.6525 3.4755-3.72 1.983-.0675 3.651 1.4925 3.7185 3.4755.0675 1.9845-1.4925 3.6525-3.4755 3.72m-.3255-9.594c-3.306.111-5.904 2.892-5.793 6.1995.1125 3.306 2.8935 5.9055 6.201 5.793 3.306-.1125 5.904-2.8935 5.793-6.1995-.1125-3.306-2.895-5.9055-6.201-5.793"/><path d="m38.1207 7.52105-3.183.7185c-.3255.0735-.6495-.1335-.72-.459l-.684-3.18c-.105-.4845.387-.87.843-.6735 1.473.639 2.775 1.503 3.993 2.5425.381.324.237.942-.249 1.0515zm-6.24.7995c.069.321-.1335.6375-.4545.711l-10.5525 2.3805c-.3225.0735-.645-.1305-.717-.453l-1.443-6.3915c-.072-.3255.126-.6495.4485-.723 2.334-.5295 4.8435-.9165 7.551-1.146 1.3005-.0615 2.4825-.0105 3.579.132.252.033.4515.225.5055.4725zm20.049 7.1565-1.584-7.023c-.114-.504-.537-.879-1.0515-.9315l-7.101-.711c-3.438-3.6525-7.761-6.8895-15.6165-6.5085-.015 0-.03.0015-.0435.0015-10.623.9-19.2975 3.5775-26.307 12.489l3.1905.108c3.573-4.5105 7.599-6.6165 12.2145-8.097.3345-.1065.7005.1005.777.4455l1.407 6.237c.0735.3225-.129.6435-.453.717l-8.5005-2.295 4.794 6.909-.732 7.458 6.777 5.853 10.401-2.3475c.651-.1455 1.05-.7965.9045-1.4475-.0015-.0045-.0015-.0105-.003-.018-1.0005-4.515 1.836-8.9925 6.351-10.011 4.527-1.0215 9.0225 1.8195 10.044 6.345.075.7305.7395 1.0635 1.434.906l4.683-1.056c.645-.1455 1.0515-.789.906-1.434l-1.0575-4.683c-.1455-.645-.7875-1.0515-1.434-.906z" transform="translate(16.5 .228)"/><path d="m27.7482 6.24765-2.3865-4.338c-.54-.123-2.2095-.486-4.6095-1.0455-5.0205-1.0695-10.3665-1.188-13.8105.0495-1.7835.6435-3.102 2.1675-3.609 3.993l-.7995 2.874c-.645-.147-1.2885.258-1.4355.9045l-1.068 4.68c-.147.645.258 1.2885.9045 1.4355l4.6785 1.068c.6495.147 1.2915-.267 1.44-.9165.0015-.006.0045-.012.006-.018 1.044-4.5045 5.535-7.32 10.0485-6.291 4.524 1.0305 7.3545 5.5335 6.3225 10.0575-.246.69.21 1.278.903 1.4355l3.2685.7455-2.397-7.9305z" transform="translate(0 8.228)"/></g></svg>